<svg width="24" height="24" viewBox="0 0 24 24" fill="none" xmlns="http://www.w3.org/2000/svg">
<path d="M7.19881 2.3999C7.57081 2.3999 7.90681 2.6303 8.03881 2.9783L10.7628 10.1051C10.7868 10.1531 10.8048 10.2035 10.8204 10.2551L10.8648 10.3739L9.91321 12.9263L9.33121 11.3999H5.06521L4.13881 13.8251C4.05352 14.048 3.88316 14.228 3.6652 14.3253C3.44725 14.4226 3.19955 14.4294 2.97661 14.3441C2.75367 14.2588 2.57374 14.0884 2.47641 13.8705C2.37908 13.6525 2.37232 13.4048 2.45761 13.1819L6.35761 2.9783C6.42268 2.80823 6.5378 2.6619 6.68778 2.55864C6.83775 2.45537 7.01672 2.40002 7.19881 2.3999ZM5.75401 9.5999H8.64241L7.20001 5.8199L5.75401 9.5999ZM15.2436 6.5879C15.1794 6.41616 15.0643 6.26813 14.9136 6.16362C14.763 6.0591 14.584 6.0031 14.4006 6.0031C14.2173 6.0031 14.0383 6.0591 13.8876 6.16362C13.737 6.26813 13.6218 6.41616 13.5576 6.5879L8.63161 19.7999H8.10601C7.86732 19.7999 7.6384 19.8947 7.46962 20.0635C7.30083 20.2323 7.20601 20.4612 7.20601 20.6999C7.20601 20.9386 7.30083 21.1675 7.46962 21.3363C7.6384 21.5051 7.86732 21.5999 8.10601 21.5999H11.106C11.3447 21.5999 11.5736 21.5051 11.7424 21.3363C11.9112 21.1675 12.006 20.9386 12.006 20.6999C12.006 20.4612 11.9112 20.2323 11.7424 20.0635C11.5736 19.8947 11.3447 19.7999 11.106 19.7999H10.5528L11.4492 17.3963H17.352L18.2472 19.7999H17.7012C17.4625 19.7999 17.2336 19.8947 17.0648 20.0635C16.896 20.2323 16.8012 20.4612 16.8012 20.6999C16.8012 20.9386 16.896 21.1675 17.0648 21.3363C17.2336 21.5051 17.4625 21.5999 17.7012 21.5999H20.7012C20.9399 21.5999 21.1688 21.5051 21.3376 21.3363C21.5064 21.1675 21.6012 20.9386 21.6012 20.6999C21.6012 20.4612 21.5064 20.2323 21.3376 20.0635C21.1688 19.8947 20.9399 19.7999 20.7012 19.7999H20.1684L15.2436 6.5879ZM16.68 15.5963H12.12L14.4 9.4787L16.68 15.5963Z" fill="#0B0B0B"/>
</svg>
