<svg width="24" height="24" viewBox="0 0 24 24" fill="none" xmlns="http://www.w3.org/2000/svg">
<path d="M22.0605 18L9 4.9395C8.71427 4.6668 8.33448 4.51464 7.9395 4.51464C7.54452 4.51464 7.16473 4.6668 6.879 4.9395L4.9395 6.879C4.65866 7.16049 4.50094 7.54188 4.50094 7.9395C4.50094 8.33712 4.65866 8.71851 4.9395 9L17.9993 22.0605C18.2807 22.3413 18.6621 22.4991 19.0597 22.4991C19.4574 22.4991 19.8388 22.3413 20.1203 22.0605L22.0605 20.121C22.3417 19.8397 22.4997 19.4582 22.4997 19.0605C22.4997 18.6628 22.3417 18.2813 22.0605 18ZM6 7.9395L7.9395 6L11.6895 9.75L9.74925 11.6903L5.99925 7.94025L6 7.9395ZM19.0597 21L10.8097 12.7507L12.75 10.8105L21 19.0605L19.0597 21ZM1.5 12L3 10.5L4.5 12L3 13.5L1.5 12ZM10.5 3L12 1.5L13.5 3L12 4.5L10.5 3ZM1.5 3L3 1.5L4.5 3L3 4.5L1.5 3Z" fill="#424242"/>
</svg>
