<svg width="30" height="24" viewBox="0 0 30 24" fill="none" xmlns="http://www.w3.org/2000/svg">
<path d="M7.4295 14.7765C6.87573 11.9896 8.11588 9.18367 8.94572 8.11173C9.77556 7.0398 10.8895 6.22208 12.1609 5.75149C13.4324 5.28089 14.8104 5.17629 16.1383 5.44958C17.4662 5.72286 18.6908 6.36307 19.673 7.29746C20.6552 8.23185 21.3556 9.42294 21.6945 10.7354H22.836C24.0374 10.7354 25.1895 11.2126 26.039 12.0619C26.8885 12.9112 27.3658 14.0631 27.3658 15.2643C27.3658 16.4654 26.8885 17.6173 26.039 18.4666C25.1895 19.316 24.0374 19.7931 22.836 19.7931L14.0749 19.7931" stroke="#0B0B0B" stroke-width="2" stroke-linecap="round" stroke-linejoin="round"/>
<path d="M6.87648 11.9895C5.76891 11.9895 4.72714 12.4006 4.05295 13.1323C3.37875 13.8641 2.99999 14.8565 2.99999 15.8913C2.99999 16.9261 3.37875 17.9185 4.05295 18.6503C4.72714 19.382 5.64155 19.7931 6.59501 19.7931H14.0757" stroke="#0B0B0B" stroke-width="2" stroke-linecap="round" stroke-linejoin="round"/>
</svg>
