<svg width="648" height="393" viewBox="0 0 648 393" fill="none" xmlns="http://www.w3.org/2000/svg">
<path opacity="0.8" d="M328.245 241.051C313.151 224.987 326.389 195.463 334.938 182.668C339.118 176.979 343.447 178.923 345.758 181.394C400.832 248.236 373.348 274.713 364.546 269.831C360.908 267.252 346.564 260.546 328.245 241.051Z" fill="white"/>
<path opacity="0.8" d="M335.691 142.529C314.507 164.707 332.59 205.935 344.34 223.834C350.091 231.796 356.135 229.141 359.38 225.73C436.764 133.357 398.825 96.2069 386.524 102.899C381.433 106.446 361.399 115.614 335.691 142.529Z" fill="white"/>
<path opacity="0.9" d="M347.775 145.773C321.737 161.98 328.989 206.411 335.913 226.671C339.501 235.815 346.016 234.747 350.008 232.251C447.95 162.047 420.452 116.624 406.872 120.043C401.058 122.211 379.373 126.104 347.775 145.773Z" fill="white"/>
<path d="M337.278 238.229C318.66 226.428 324.132 194.538 329.228 180.018C331.86 173.467 336.536 174.273 339.39 176.09C409.369 227.12 389.34 259.605 379.6 257.068C375.434 255.475 359.872 252.55 337.278 238.229Z" fill="white"/>
<path opacity="0.8" d="M312.091 241.053C327.185 224.989 313.947 195.465 305.398 182.67C301.218 176.981 296.889 178.925 294.577 181.396C239.504 248.238 266.988 274.715 275.79 269.833C279.428 267.254 293.772 260.548 312.091 241.053Z" fill="white"/>
<path opacity="0.8" d="M304.641 142.529C325.825 164.707 307.742 205.935 295.992 223.834C290.241 231.796 284.197 229.141 280.952 225.73C203.568 133.357 241.507 96.2069 253.808 102.899C258.899 106.446 278.933 115.614 304.641 142.529Z" fill="white"/>
<path opacity="0.8" d="M292.558 145.773C318.595 161.98 311.343 206.411 304.419 226.671C300.831 235.815 294.316 234.747 290.324 232.251C192.382 162.047 219.88 116.624 233.46 120.043C239.274 122.211 260.959 126.104 292.558 145.773Z" fill="white"/>
<path d="M303.054 238.229C321.672 226.428 316.2 194.538 311.104 180.018C308.472 173.467 303.796 174.273 300.942 176.09C230.963 227.12 250.992 259.605 260.732 257.068C264.898 255.475 280.46 252.55 303.054 238.229Z" fill="white"/>
<path opacity="0.8" d="M455.583 68.9939C449.809 62.8496 454.873 51.5566 458.143 46.6624C459.742 44.4865 461.398 45.2301 462.282 46.175C483.348 71.7424 472.835 81.8698 469.468 80.0025C468.077 79.0159 462.59 76.4507 455.583 68.9939Z" fill="white"/>
<path opacity="0.8" d="M458.429 31.3089C450.326 39.792 457.243 55.5615 461.737 62.408C463.937 65.4536 466.249 64.4378 467.49 63.1332C497.089 27.8004 482.578 13.5906 477.872 16.1503C475.925 17.5072 468.262 21.0138 458.429 31.3089Z" fill="white"/>
<path opacity="0.9" d="M463.055 32.5492C453.095 38.7484 455.869 55.7433 458.517 63.4929C459.89 66.9902 462.382 66.5819 463.909 65.6272C501.372 38.7743 490.854 21.3996 485.659 22.7075C483.436 23.5369 475.141 25.0258 463.055 32.5492Z" fill="white"/>
<path d="M459.038 67.9135C451.916 63.3997 454.01 51.2018 455.959 45.6477C456.966 43.1422 458.754 43.4503 459.846 44.1454C486.613 63.6644 478.952 76.0899 475.226 75.1194C473.633 74.5102 467.68 73.3915 459.038 67.9135Z" fill="white"/>
<path opacity="0.8" d="M449.409 68.9939C455.183 62.8496 450.119 51.5566 446.849 46.6624C445.25 44.4865 443.595 45.2301 442.71 46.175C421.644 71.7424 432.157 81.8698 435.524 80.0025C436.916 79.0159 442.402 76.4507 449.409 68.9939Z" fill="white"/>
<path opacity="0.8" d="M446.556 31.3089C454.658 39.792 447.742 55.5615 443.247 62.408C441.048 65.4536 438.736 64.4378 437.495 63.1332C407.895 27.8004 422.407 13.5906 427.112 16.1503C429.059 17.5072 436.722 21.0138 446.556 31.3089Z" fill="white"/>
<path opacity="0.8" d="M441.934 32.5492C451.893 38.7484 449.119 55.7433 446.471 63.4929C445.098 66.9902 442.606 66.5819 441.08 65.6272C403.617 38.7743 414.135 21.3996 419.329 22.7075C421.553 23.5369 429.847 25.0258 441.934 32.5492Z" fill="white"/>
<path d="M445.95 67.9135C453.072 63.3997 450.979 51.2018 449.03 45.6477C448.023 43.1422 446.234 43.4503 445.142 44.1454C418.376 63.6644 426.037 76.0899 429.762 75.1194C431.356 74.5102 437.308 73.3915 445.95 67.9135Z" fill="white"/>
<path opacity="0.8" d="M471.086 157.328C468.105 154.155 470.719 148.324 472.408 145.797C473.233 144.673 474.088 145.057 474.545 145.545C485.422 158.747 479.994 163.976 478.255 163.012C477.537 162.502 474.704 161.178 471.086 157.328Z" fill="white"/>
<path opacity="0.8" d="M472.559 137.87C468.376 142.25 471.947 150.392 474.268 153.927C475.403 155.5 476.597 154.975 477.238 154.302C492.522 136.058 485.029 128.721 482.599 130.042C481.593 130.743 477.637 132.554 472.559 137.87Z" fill="white"/>
<path opacity="0.9" d="M474.945 138.51C469.803 141.711 471.235 150.486 472.603 154.488C473.311 156.293 474.598 156.082 475.386 155.59C494.73 141.724 489.299 132.753 486.617 133.428C485.469 133.856 481.186 134.625 474.945 138.51Z" fill="white"/>
<path d="M472.873 156.77C469.195 154.44 470.276 148.141 471.283 145.273C471.803 143.98 472.726 144.139 473.29 144.498C487.111 154.576 483.155 160.992 481.231 160.491C480.409 160.176 477.335 159.599 472.873 156.77Z" fill="white"/>
<path opacity="0.8" d="M467.895 157.328C470.876 154.155 468.261 148.324 466.573 145.797C465.747 144.673 464.892 145.057 464.436 145.545C453.559 158.747 458.987 163.976 460.725 163.012C461.444 162.502 464.277 161.178 467.895 157.328Z" fill="white"/>
<path opacity="0.8" d="M466.425 137.87C470.609 142.25 467.037 150.392 464.717 153.927C463.581 155.5 462.387 154.975 461.746 154.302C446.463 136.058 453.956 128.721 456.385 130.042C457.391 130.743 461.348 132.554 466.425 137.87Z" fill="white"/>
<path opacity="0.8" d="M464.035 138.509C469.178 141.71 467.745 150.485 466.378 154.487C465.669 156.292 464.382 156.082 463.594 155.589C444.25 141.723 449.681 132.752 452.363 133.427C453.512 133.855 457.794 134.624 464.035 138.509Z" fill="white"/>
<path d="M466.108 156.769C469.785 154.439 468.704 148.14 467.698 145.272C467.178 143.979 466.254 144.138 465.691 144.497C451.87 154.575 455.826 160.991 457.749 160.49C458.572 160.175 461.645 159.598 466.108 156.769Z" fill="white"/>
<path opacity="0.8" d="M550.155 221.538C544.586 215.611 549.47 204.718 552.625 199.997C554.167 197.898 555.764 198.615 556.617 199.527C576.937 224.189 566.796 233.958 563.549 232.157C562.207 231.205 556.914 228.731 550.155 221.538Z" fill="white"/>
<path opacity="0.8" d="M552.906 185.188C545.09 193.371 551.762 208.583 556.097 215.187C558.219 218.125 560.449 217.145 561.646 215.886C590.198 181.804 576.2 168.097 571.661 170.566C569.783 171.875 562.391 175.258 552.906 185.188Z" fill="white"/>
<path opacity="0.9" d="M557.362 186.384C547.755 192.364 550.43 208.757 552.985 216.233C554.309 219.606 556.713 219.212 558.186 218.292C594.323 192.389 584.177 175.629 579.166 176.891C577.021 177.691 569.02 179.127 557.362 186.384Z" fill="white"/>
<path d="M553.489 220.496C546.62 216.142 548.639 204.376 550.519 199.018C551.49 196.601 553.215 196.898 554.268 197.569C580.088 216.397 572.698 228.383 569.104 227.447C567.567 226.859 561.825 225.78 553.489 220.496Z" fill="white"/>
<path opacity="0.8" d="M544.2 221.538C549.77 215.611 544.885 204.718 541.731 199.997C540.188 197.898 538.591 198.615 537.738 199.527C517.418 224.189 527.559 233.958 530.807 232.157C532.149 231.205 537.441 228.731 544.2 221.538Z" fill="white"/>
<path opacity="0.8" d="M541.454 185.188C549.27 193.371 542.598 208.583 538.262 215.187C536.14 218.125 533.91 217.145 532.713 215.886C504.161 181.804 518.159 168.097 522.698 170.566C524.577 171.875 531.968 175.258 541.454 185.188Z" fill="white"/>
<path opacity="0.8" d="M536.99 186.384C546.597 192.364 543.921 208.757 541.366 216.233C540.042 219.606 537.639 219.212 536.166 218.292C500.029 192.389 510.175 175.629 515.185 176.891C517.33 177.691 525.331 179.127 536.99 186.384Z" fill="white"/>
<path d="M540.863 220.496C547.732 216.142 545.713 204.376 543.833 199.018C542.862 196.601 541.136 196.898 540.083 197.569C514.264 216.397 521.654 228.383 525.247 227.447C526.784 226.859 532.526 225.78 540.863 220.496Z" fill="white"/>
<path opacity="0.8" d="M460.184 260.417C455.297 255.216 459.583 245.658 462.351 241.515C463.704 239.674 465.106 240.303 465.854 241.103C483.685 262.743 474.786 271.315 471.937 269.735C470.759 268.9 466.115 266.729 460.184 260.417Z" fill="white"/>
<path opacity="0.8" d="M462.595 228.52C455.737 235.7 461.591 249.048 465.395 254.842C467.257 257.42 469.214 256.561 470.264 255.456C495.318 225.55 483.035 213.523 479.052 215.689C477.404 216.838 470.918 219.806 462.595 228.52Z" fill="white"/>
<path opacity="0.9" d="M466.507 229.571C458.077 234.818 460.425 249.203 462.667 255.762C463.828 258.722 465.938 258.377 467.23 257.569C498.939 234.84 490.037 220.134 485.64 221.241C483.758 221.943 476.737 223.203 466.507 229.571Z" fill="white"/>
<path d="M463.104 259.502C457.077 255.681 458.848 245.357 460.498 240.656C461.35 238.535 462.864 238.796 463.788 239.384C486.444 255.905 479.96 266.423 476.806 265.601C475.458 265.085 470.419 264.139 463.104 259.502Z" fill="white"/>
<path opacity="0.8" d="M454.953 260.415C459.839 255.214 455.554 245.656 452.786 241.513C451.432 239.672 450.031 240.301 449.282 241.101C431.452 262.741 440.35 271.313 443.2 269.733C444.378 268.898 449.022 266.727 454.953 260.415Z" fill="white"/>
<path opacity="0.8" d="M452.542 228.518C459.4 235.698 453.546 249.046 449.742 254.841C447.88 257.418 445.923 256.559 444.872 255.454C419.819 225.548 432.102 213.521 436.084 215.687C437.733 216.836 444.219 219.804 452.542 228.518Z" fill="white"/>
<path opacity="0.8" d="M448.626 229.568C457.056 234.815 454.708 249.2 452.466 255.759C451.304 258.719 449.195 258.374 447.903 257.566C416.194 234.837 425.096 220.131 429.493 221.238C431.375 221.94 438.396 223.2 448.626 229.568Z" fill="white"/>
<path d="M452.029 259.499C458.056 255.678 456.284 245.354 454.635 240.653C453.783 238.532 452.269 238.793 451.345 239.381C428.689 255.903 435.173 266.42 438.327 265.598C439.675 265.083 444.713 264.136 452.029 259.499Z" fill="white"/>
<path opacity="0.8" d="M530.812 321.402C526.984 317.329 530.341 309.843 532.509 306.598C533.569 305.156 534.666 305.649 535.253 306.275C549.218 323.224 542.248 329.938 540.016 328.7C539.094 328.046 535.457 326.346 530.812 321.402Z" fill="white"/>
<path opacity="0.8" d="M532.703 296.421C527.331 302.044 531.917 312.498 534.896 317.037C536.354 319.056 537.887 318.383 538.71 317.518C558.332 294.095 548.712 284.675 545.592 286.372C544.301 287.271 539.222 289.596 532.703 296.421Z" fill="white"/>
<path opacity="0.9" d="M535.771 297.243C529.169 301.352 531.007 312.619 532.763 317.756C533.673 320.074 535.325 319.804 536.337 319.171C561.172 301.369 554.199 289.851 550.756 290.718C549.282 291.268 543.783 292.255 535.771 297.243Z" fill="white"/>
<path d="M533.108 320.686C528.387 317.693 529.775 309.607 531.067 305.925C531.734 304.264 532.92 304.468 533.644 304.929C551.388 317.869 546.309 326.106 543.84 325.462C542.783 325.059 538.837 324.317 533.108 320.686Z" fill="white"/>
<path opacity="0.8" d="M526.727 321.402C530.555 317.329 527.198 309.843 525.03 306.598C523.97 305.156 522.873 305.649 522.287 306.275C508.322 323.224 515.291 329.938 517.523 328.7C518.445 328.046 522.082 326.346 526.727 321.402Z" fill="white"/>
<path opacity="0.8" d="M524.836 296.421C530.208 302.044 525.623 312.498 522.643 317.037C521.185 319.056 519.652 318.383 518.83 317.518C499.207 294.095 508.827 284.675 511.947 286.372C513.238 287.271 518.317 289.596 524.836 296.421Z" fill="white"/>
<path opacity="0.8" d="M521.764 297.243C528.367 301.352 526.528 312.619 524.772 317.756C523.862 320.074 522.21 319.804 521.198 319.171C496.363 301.369 503.336 289.851 506.779 290.718C508.253 291.268 513.752 292.255 521.764 297.243Z" fill="white"/>
<path d="M524.427 320.686C529.148 317.693 527.76 309.607 526.468 305.925C525.801 304.264 524.615 304.468 523.892 304.929C506.147 317.869 511.226 326.106 513.696 325.462C514.752 325.059 518.698 324.317 524.427 320.686Z" fill="white"/>
<path opacity="0.8" d="M288.083 81.3449C285.593 78.6945 287.777 73.8231 289.188 71.7119C289.877 70.7732 290.592 71.094 290.973 71.5016C300.06 82.5305 295.525 86.8992 294.073 86.0937C293.473 85.6681 291.106 84.5615 288.083 81.3449Z" fill="white"/>
<path opacity="0.8" d="M289.306 65.0908C285.811 68.7501 288.795 75.5526 290.733 78.5059C291.682 79.8197 292.68 79.3815 293.215 78.8188C305.983 63.5773 299.723 57.4477 297.694 58.5519C296.854 59.1372 293.548 60.6499 289.306 65.0908Z" fill="white"/>
<path opacity="0.9" d="M291.301 65.6259C287.005 68.3 288.201 75.631 289.344 78.974C289.936 80.4826 291.011 80.3065 291.669 79.8947C307.83 68.3112 303.292 60.8163 301.052 61.3805C300.093 61.7383 296.515 62.3806 291.301 65.6259Z" fill="white"/>
<path d="M289.566 80.8809C286.494 78.9338 287.397 73.672 288.238 71.2761C288.672 70.1954 289.444 70.3283 289.915 70.6281C301.461 79.048 298.156 84.4079 296.549 83.9893C295.862 83.7265 293.294 83.2439 289.566 80.8809Z" fill="white"/>
<path opacity="0.8" d="M285.417 81.3449C287.907 78.6945 285.723 73.8231 284.312 71.7119C283.623 70.7732 282.908 71.094 282.527 71.5016C273.44 82.5305 277.975 86.8992 279.427 86.0937C280.027 85.6681 282.394 84.5615 285.417 81.3449Z" fill="white"/>
<path opacity="0.8" d="M284.186 65.0908C287.681 68.7501 284.697 75.5526 282.759 78.5059C281.81 79.8197 280.813 79.3815 280.277 78.8188C267.509 63.5773 273.769 57.4477 275.799 58.5519C276.639 59.1372 279.944 60.6499 284.186 65.0908Z" fill="white"/>
<path opacity="0.8" d="M282.195 65.6259C286.491 68.3 285.295 75.631 284.152 78.974C283.56 80.4826 282.485 80.3065 281.827 79.8946C265.667 68.3112 270.204 60.8163 272.444 61.3805C273.404 61.7383 276.982 62.3806 282.195 65.6259Z" fill="white"/>
<path d="M283.922 80.8799C286.994 78.9328 286.091 73.671 285.25 71.2752C284.816 70.1944 284.044 70.3273 283.574 70.6271C272.027 79.047 275.332 84.4069 276.939 83.9883C277.626 83.7255 280.194 83.2429 283.922 80.8799Z" fill="white"/>
<path opacity="0.8" d="M190.548 24.0861C188.058 21.4357 190.242 16.5643 191.652 14.4531C192.342 13.5144 193.056 13.8352 193.438 14.2428C202.525 25.2717 197.99 29.6404 196.538 28.8349C195.937 28.4093 193.571 27.3028 190.548 24.0861Z" fill="white"/>
<path opacity="0.8" d="M191.775 7.83105C188.28 11.4904 191.263 18.2928 193.202 21.2462C194.151 22.56 195.148 22.1218 195.684 21.559C208.452 6.31758 202.192 0.187959 200.162 1.29213C199.322 1.87744 196.017 3.39009 191.775 7.83105Z" fill="white"/>
<path opacity="0.9" d="M193.77 8.36807C189.473 11.0422 190.67 18.3732 191.812 21.7162C192.404 23.2248 193.479 23.0486 194.138 22.6368C210.298 11.0534 205.761 3.5585 203.521 4.12269C202.561 4.48049 198.983 5.12275 193.77 8.36807Z" fill="white"/>
<path d="M192.043 23.6221C188.971 21.675 189.874 16.4132 190.714 14.0174C191.149 12.9366 191.92 13.0695 192.391 13.3693C203.938 21.7892 200.633 27.1491 199.026 26.7305C198.338 26.4677 195.771 25.9851 192.043 23.6221Z" fill="white"/>
<path opacity="0.8" d="M187.878 24.0861C190.368 21.4357 188.184 16.5643 186.773 14.4531C186.084 13.5144 185.369 13.8352 184.988 14.2428C175.901 25.2717 180.436 29.6404 181.888 28.8349C182.488 28.4093 184.855 27.3028 187.878 24.0861Z" fill="white"/>
<path opacity="0.8" d="M186.651 7.83203C190.146 11.4913 187.162 18.2938 185.224 21.2472C184.275 22.5609 183.277 22.1227 182.742 21.56C169.974 6.31856 176.234 0.188935 178.263 1.29311C179.103 1.87841 182.409 3.39107 186.651 7.83203Z" fill="white"/>
<path opacity="0.8" d="M184.66 8.36612C188.956 11.0402 187.76 18.3713 186.617 21.7142C186.025 23.2228 184.95 23.0467 184.292 22.6349C168.131 11.0514 172.668 3.55655 174.909 4.12074C175.868 4.47853 179.446 5.12079 184.66 8.36612Z" fill="white"/>
<path d="M186.387 23.6211C189.459 21.674 188.556 16.4122 187.715 14.0164C187.281 12.9356 186.509 13.0685 186.038 13.3683C174.492 21.7882 177.797 27.1481 179.404 26.7295C180.091 26.4667 182.659 25.9841 186.387 23.6211Z" fill="white"/>
<path opacity="0.8" d="M367.079 88.8563C363.557 85.1083 366.646 78.2196 368.64 75.2341C369.616 73.9068 370.626 74.3604 371.165 74.9368C384.015 90.5329 377.602 96.7105 375.549 95.5715C374.7 94.9697 371.353 93.4049 367.079 88.8563Z" fill="white"/>
<path opacity="0.8" d="M368.81 65.8676C363.868 71.0422 368.087 80.6616 370.828 84.838C372.17 86.6958 373.58 86.0761 374.338 85.2803C392.393 63.7273 383.541 55.0594 380.671 56.6208C379.483 57.4485 374.809 59.5876 368.81 65.8676Z" fill="white"/>
<path opacity="0.9" d="M371.638 66.6266C365.563 70.4081 367.255 80.775 368.871 85.5022C369.708 87.6356 371.228 87.3865 372.16 86.8042C395.012 70.4239 388.596 59.8254 385.427 60.6232C384.071 61.1291 379.011 62.0374 371.638 66.6266Z" fill="white"/>
<path d="M369.183 88.1969C364.839 85.4435 366.116 78.0028 367.305 74.6148C367.919 73.0864 369.01 73.2744 369.676 73.6984C386.004 85.605 381.331 93.1845 379.058 92.5925C378.086 92.2209 374.455 91.5384 369.183 88.1969Z" fill="white"/>
<path opacity="0.8" d="M363.312 88.8573C366.834 85.1092 363.745 78.2205 361.75 75.2351C360.775 73.9078 359.765 74.3614 359.226 74.9378C346.375 90.5338 352.788 96.7115 354.842 95.5725C355.691 94.9707 359.038 93.4059 363.312 88.8573Z" fill="white"/>
<path opacity="0.8" d="M361.573 65.8685C366.515 71.0432 362.296 80.6626 359.555 84.8389C358.213 86.6968 356.802 86.0771 356.045 85.2813C337.99 63.7283 346.842 55.0604 349.712 56.6218C350.9 57.4495 355.574 59.5885 361.573 65.8685Z" fill="white"/>
<path opacity="0.8" d="M358.748 66.6276C364.823 70.4091 363.131 80.7759 361.516 85.5032C360.679 87.6366 359.158 87.3875 358.227 86.8051C335.375 70.4249 341.791 59.8263 344.959 60.6242C346.316 61.1301 351.375 62.0384 358.748 66.6276Z" fill="white"/>
<path d="M361.203 88.1979C365.547 85.4445 364.271 78.0037 363.082 74.6157C362.467 73.0874 361.376 73.2754 360.711 73.6993C344.383 85.6059 349.056 93.1854 351.329 92.5934C352.301 92.2219 355.932 91.5394 361.203 88.1979Z" fill="white"/>
<path opacity="0.8" d="M198.442 224.289C194.798 220.411 197.994 213.283 200.058 210.194C201.067 208.821 202.112 209.29 202.67 209.886C215.966 226.024 209.331 232.416 207.206 231.237C206.328 230.614 202.865 228.995 198.442 224.289Z" fill="white"/>
<path opacity="0.8" d="M200.236 200.502C195.122 205.856 199.488 215.81 202.324 220.131C203.713 222.053 205.172 221.412 205.955 220.588C224.637 198.288 215.478 189.319 212.508 190.934C211.279 191.791 206.443 194.004 200.236 200.502Z" fill="white"/>
<path opacity="0.9" d="M203.163 201.285C196.877 205.198 198.628 215.925 200.3 220.816C201.166 223.023 202.739 222.766 203.702 222.163C227.348 205.214 220.709 194.248 217.431 195.074C216.027 195.597 210.792 196.537 203.163 201.285Z" fill="white"/>
<path d="M200.63 223.606C196.135 220.757 197.456 213.058 198.686 209.552C199.322 207.971 200.451 208.165 201.14 208.604C218.034 220.924 213.199 228.766 210.847 228.154C209.842 227.769 206.085 227.063 200.63 223.606Z" fill="white"/>
<path opacity="0.8" d="M194.538 224.289C198.182 220.411 194.986 213.283 192.922 210.194C191.913 208.821 190.868 209.29 190.31 209.886C177.014 226.024 183.649 232.416 185.774 231.237C186.653 230.614 190.116 228.995 194.538 224.289Z" fill="white"/>
<path opacity="0.8" d="M192.737 200.502C197.851 205.856 193.485 215.81 190.649 220.131C189.26 222.053 187.801 221.412 187.018 220.588C168.335 198.288 177.495 189.319 180.464 190.934C181.694 191.791 186.53 194.004 192.737 200.502Z" fill="white"/>
<path opacity="0.8" d="M189.813 201.285C196.099 205.198 194.349 215.925 192.677 220.816C191.811 223.023 190.238 222.766 189.274 222.163C165.629 205.214 172.267 194.248 175.546 195.074C176.949 195.597 182.185 196.537 189.813 201.285Z" fill="white"/>
<path d="M192.347 223.606C196.842 220.757 195.52 213.058 194.29 209.552C193.655 207.971 192.526 208.165 191.837 208.604C174.942 220.924 179.778 228.766 182.129 228.154C183.135 227.769 186.892 227.063 192.347 223.606Z" fill="white"/>
<path opacity="0.8" d="M177.791 109.01C172.015 102.863 177.081 91.5667 180.352 86.6709C181.951 84.4942 183.608 85.2381 184.492 86.1833C205.565 111.759 195.049 121.89 191.681 120.022C190.289 119.035 184.8 116.469 177.791 109.01Z" fill="white"/>
<path opacity="0.8" d="M180.638 71.3128C172.532 79.7987 179.451 95.5736 183.947 102.422C186.148 105.469 188.46 104.453 189.702 103.148C219.311 67.8031 204.795 53.5885 200.088 56.1491C198.14 57.5064 190.475 61.0143 180.638 71.3128Z" fill="white"/>
<path opacity="0.9" d="M185.271 72.5535C175.308 78.7547 178.083 95.7554 180.732 103.508C182.105 107.006 184.598 106.598 186.125 105.643C223.6 78.7806 213.079 61.4001 207.883 62.7085C205.658 63.5382 197.361 65.0276 185.271 72.5535Z" fill="white"/>
<path d="M181.249 107.929C174.125 103.414 176.219 91.212 178.169 85.656C179.176 83.1497 180.965 83.4579 182.057 84.1532C208.833 103.679 201.17 116.108 197.443 115.138C195.849 114.528 189.894 113.409 181.249 107.929Z" fill="white"/>
<path opacity="0.8" d="M171.615 109.01C177.391 102.863 172.326 91.5667 169.054 86.6709C167.455 84.4942 165.799 85.2381 164.914 86.1833C143.841 111.759 154.358 121.89 157.726 120.022C159.118 119.035 164.606 116.469 171.615 109.01Z" fill="white"/>
<path opacity="0.8" d="M168.765 71.3128C176.87 79.7987 169.951 95.5736 165.455 102.422C163.255 105.469 160.942 104.453 159.7 103.148C130.091 67.8031 144.607 53.5885 149.314 56.1491C151.262 57.5064 158.928 61.0143 168.765 71.3128Z" fill="white"/>
<path opacity="0.8" d="M164.14 72.5535C174.102 78.7547 171.328 95.7554 168.678 103.508C167.305 107.006 164.812 106.598 163.285 105.643C125.81 78.7806 136.331 61.4001 141.527 62.7085C143.752 63.5382 152.049 65.0276 164.14 72.5535Z" fill="white"/>
<path d="M168.161 107.929C175.285 103.414 173.191 91.212 171.241 85.656C170.234 83.1497 168.445 83.4579 167.353 84.1532C140.577 103.679 148.241 116.108 151.967 115.138C153.561 114.528 159.516 113.409 168.161 107.929Z" fill="white"/>
<path opacity="0.8" d="M125.816 289.947C120.453 284.239 125.157 273.75 128.194 269.203C129.679 267.182 131.217 267.873 132.039 268.751C151.606 292.5 141.841 301.907 138.714 300.172C137.421 299.256 132.325 296.873 125.816 289.947Z" fill="white"/>
<path opacity="0.8" d="M128.463 254.942C120.936 262.822 127.361 277.47 131.536 283.829C133.579 286.658 135.727 285.715 136.879 284.503C164.374 251.683 150.894 238.484 146.524 240.861C144.715 242.122 137.597 245.379 128.463 254.942Z" fill="white"/>
<path opacity="0.9" d="M132.761 256.094C123.51 261.852 126.087 277.638 128.547 284.837C129.822 288.086 132.137 287.706 133.555 286.819C168.353 261.876 158.584 245.737 153.758 246.952C151.693 247.722 143.988 249.105 132.761 256.094Z" fill="white"/>
<path d="M129.026 288.943C122.411 284.75 124.355 273.42 126.165 268.261C127.101 265.934 128.762 266.22 129.776 266.865C154.639 284.996 147.523 296.538 144.063 295.637C142.583 295.071 137.053 294.032 129.026 288.943Z" fill="white"/>
<path opacity="0.8" d="M120.074 289.947C125.437 284.239 120.734 273.75 117.696 269.203C116.211 267.182 114.673 267.873 113.852 268.751C94.2842 292.5 104.049 301.907 107.177 300.172C108.469 299.256 113.566 296.873 120.074 289.947Z" fill="white"/>
<path opacity="0.8" d="M117.428 254.942C124.954 262.822 118.529 277.47 114.355 283.829C112.311 286.658 110.164 285.715 109.011 284.503C81.5167 251.683 94.9963 238.484 99.367 240.861C101.176 242.122 108.294 245.379 117.428 254.942Z" fill="white"/>
<path opacity="0.8" d="M113.125 256.095C122.376 261.853 119.8 277.639 117.34 284.838C116.065 288.086 113.75 287.707 112.332 286.82C77.5334 261.877 87.3032 245.738 92.1282 246.953C94.1938 247.723 101.898 249.106 113.125 256.095Z" fill="white"/>
<path d="M116.861 288.944C123.476 284.751 121.532 273.421 119.721 268.262C118.786 265.934 117.125 266.221 116.111 266.866C91.2472 284.997 98.3635 296.539 101.824 295.638C103.304 295.072 108.833 294.033 116.861 288.944Z" fill="white"/>
<path opacity="0.8" d="M228.048 356.015C221.519 349.067 227.245 336.298 230.943 330.764C232.75 328.304 234.622 329.145 235.622 330.213C259.442 359.122 247.555 370.574 243.748 368.462C242.174 367.347 235.971 364.446 228.048 356.015Z" fill="white"/>
<path opacity="0.8" d="M231.26 313.404C222.099 322.996 229.919 340.827 235.001 348.568C237.488 352.012 240.103 350.863 241.506 349.388C274.974 309.437 258.566 293.37 253.245 296.264C251.044 297.798 242.379 301.763 231.26 313.404Z" fill="white"/>
<path opacity="0.9" d="M236.49 314.805C225.229 321.815 228.365 341.031 231.36 349.794C232.912 353.748 235.73 353.286 237.456 352.207C279.815 321.844 267.923 302.198 262.049 303.677C259.535 304.615 250.156 306.299 236.49 314.805Z" fill="white"/>
<path d="M231.954 354.792C223.902 349.688 226.268 335.896 228.472 329.616C229.611 326.783 231.633 327.131 232.868 327.917C263.133 349.988 254.471 364.037 250.258 362.94C248.456 362.251 241.726 360.986 231.954 354.792Z" fill="white"/>
<path opacity="0.8" d="M221.054 356.016C227.582 349.068 221.857 336.299 218.159 330.765C216.351 328.305 214.479 329.146 213.479 330.214C189.66 359.123 201.547 370.575 205.354 368.463C206.927 367.348 213.131 364.447 221.054 356.016Z" fill="white"/>
<path opacity="0.8" d="M217.841 313.405C227.003 322.997 219.182 340.827 214.101 348.569C211.613 352.013 208.999 350.864 207.596 349.389C174.127 309.438 190.536 293.371 195.856 296.265C198.058 297.799 206.722 301.764 217.841 313.405Z" fill="white"/>
<path opacity="0.8" d="M212.604 314.807C223.865 321.817 220.729 341.033 217.734 349.796C216.182 353.75 213.364 353.288 211.638 352.209C169.278 321.846 181.171 302.2 187.044 303.679C189.559 304.617 198.937 306.301 212.604 314.807Z" fill="white"/>
<path d="M217.14 354.793C225.192 349.689 222.825 335.897 220.622 329.617C219.483 326.784 217.461 327.132 216.226 327.918C185.961 349.989 194.623 364.038 198.836 362.941C200.637 362.252 207.368 360.987 217.14 354.793Z" fill="white"/>
<path opacity="0.8" d="M32.1615 321.898C28.0361 317.508 31.6542 309.439 33.9908 305.942C35.1333 304.387 36.3163 304.918 36.9481 305.593C52.0001 323.862 44.4884 331.098 42.0828 329.764C41.0885 329.059 37.1681 327.226 32.1615 321.898Z" fill="white"/>
<path opacity="0.8" d="M34.1956 294.971C28.406 301.033 33.3482 312.3 36.5594 317.192C38.1312 319.368 39.7832 318.643 40.6699 317.71C61.8195 292.464 51.4506 282.311 48.0885 284.14C46.6971 285.109 41.2218 287.615 34.1956 294.971Z" fill="white"/>
<path opacity="0.9" d="M37.4991 295.86C30.3829 300.29 32.3648 312.433 34.2572 317.97C35.2379 320.469 37.0186 320.178 38.1094 319.495C64.8776 300.308 57.3623 287.894 53.6508 288.828C52.0618 289.421 46.1352 290.485 37.4991 295.86Z" fill="white"/>
<path d="M34.6288 321.128C29.5404 317.903 31.036 309.187 32.4286 305.219C33.1481 303.429 34.4261 303.649 35.2061 304.145C54.3318 318.092 48.8577 326.97 46.1957 326.277C45.0572 325.842 40.804 325.042 34.6288 321.128Z" fill="white"/>
<path opacity="0.8" d="M27.7408 321.899C31.8662 317.509 28.2481 309.44 25.9115 305.943C24.7691 304.388 23.5861 304.919 22.9543 305.594C7.90224 323.863 15.414 331.099 17.8196 329.765C18.8139 329.06 22.7342 327.227 27.7408 321.899Z" fill="white"/>
<path opacity="0.8" d="M25.7068 294.972C31.4964 301.034 26.5542 312.301 23.343 317.193C21.7711 319.369 20.1192 318.644 19.2324 317.711C-1.91716 292.465 8.45178 282.312 11.8139 284.141C13.2053 285.11 18.6805 287.616 25.7068 294.972Z" fill="white"/>
<path opacity="0.8" d="M22.4033 295.859C29.5194 300.289 27.5375 312.432 25.6451 317.969C24.6644 320.468 22.8838 320.177 21.7929 319.494C-4.97522 300.307 2.54003 287.893 6.25157 288.827C7.8405 289.42 13.7671 290.484 22.4033 295.859Z" fill="white"/>
<path d="M25.2736 321.127C30.3619 317.902 28.8663 309.186 27.4737 305.218C26.7542 303.428 25.4762 303.648 24.6962 304.144C5.57058 318.091 11.0446 326.969 13.7066 326.276C14.8451 325.841 19.0983 325.041 25.2736 321.127Z" fill="white"/>
<path opacity="0.8" d="M632.223 340.61C629.885 338.122 631.935 333.55 633.259 331.568C633.907 330.687 634.577 330.988 634.935 331.371C643.465 341.723 639.208 345.823 637.845 345.067C637.281 344.668 635.06 343.629 632.223 340.61Z" fill="white"/>
<path opacity="0.8" d="M633.376 325.351C630.095 328.786 632.896 335.171 634.715 337.943C635.606 339.176 636.542 338.765 637.045 338.237C649.029 323.931 643.154 318.177 641.249 319.214C640.46 319.763 637.357 321.183 633.376 325.351Z" fill="white"/>
<path opacity="0.9" d="M635.243 325.853C631.21 328.363 632.333 335.245 633.406 338.382C633.961 339.799 634.97 339.633 635.589 339.247C650.757 328.374 646.499 321.339 644.395 321.869C643.495 322.204 640.137 322.807 635.243 325.853Z" fill="white"/>
<path d="M633.618 340.173C630.734 338.346 631.582 333.407 632.371 331.158C632.779 330.143 633.503 330.268 633.945 330.55C644.783 338.453 641.681 343.484 640.172 343.091C639.527 342.844 637.117 342.391 633.618 340.173Z" fill="white"/>
<path opacity="0.8" d="M629.723 340.61C632.06 338.122 630.01 333.55 628.686 331.568C628.039 330.687 627.368 330.988 627.01 331.371C618.481 341.723 622.737 345.823 624.1 345.067C624.664 344.668 626.885 343.629 629.723 340.61Z" fill="white"/>
<path opacity="0.8" d="M628.569 325.351C631.85 328.786 629.05 335.171 627.23 337.943C626.339 339.176 625.403 338.765 624.901 338.237C612.916 323.931 618.792 318.177 620.697 319.214C621.485 319.763 624.588 321.183 628.569 325.351Z" fill="white"/>
<path opacity="0.8" d="M626.695 325.853C630.727 328.363 629.604 335.245 628.532 338.382C627.976 339.799 626.967 339.633 626.349 339.247C611.18 328.374 615.439 321.339 617.542 321.869C618.443 322.204 621.801 322.807 626.695 325.853Z" fill="white"/>
<path d="M628.32 340.173C631.203 338.346 630.356 333.407 629.567 331.158C629.159 330.143 628.435 330.268 627.993 330.55C617.155 338.453 620.257 343.484 621.765 343.091C622.41 342.844 624.821 342.391 628.32 340.173Z" fill="white"/>
<path opacity="0.8" d="M435.434 377.384C428.906 370.436 434.632 357.667 438.329 352.133C440.137 349.673 442.009 350.514 443.009 351.582C466.828 380.492 454.941 391.943 451.134 389.831C449.561 388.716 443.357 385.815 435.434 377.384Z" fill="white"/>
<path opacity="0.8" d="M438.651 334.773C429.489 344.365 437.31 362.196 442.392 369.937C444.879 373.381 447.493 372.232 448.896 370.757C482.365 330.806 465.956 314.739 460.636 317.633C458.434 319.167 449.77 323.132 438.651 334.773Z" fill="white"/>
<path opacity="0.9" d="M443.881 336.175C432.62 343.185 435.756 362.401 438.751 371.164C440.302 375.118 443.12 374.657 444.846 373.577C487.206 343.214 475.313 323.568 469.44 325.047C466.926 325.985 457.547 327.669 443.881 336.175Z" fill="white"/>
<path d="M439.344 376.162C431.292 371.059 433.659 357.266 435.863 350.986C437.001 348.153 439.024 348.502 440.258 349.288C470.524 371.358 461.861 385.407 457.649 384.31C455.847 383.621 449.117 382.356 439.344 376.162Z" fill="white"/>
<path opacity="0.8" d="M428.452 377.383C434.981 370.435 429.255 357.666 425.557 352.132C423.75 349.672 421.878 350.513 420.878 351.581C397.058 380.491 408.945 391.942 412.752 389.83C414.326 388.715 420.529 385.814 428.452 377.383Z" fill="white"/>
<path opacity="0.8" d="M425.232 334.773C434.394 344.365 426.573 362.196 421.491 369.937C419.004 373.381 416.39 372.232 414.986 370.757C381.518 330.806 397.926 314.739 403.247 317.633C405.449 319.167 414.113 323.132 425.232 334.773Z" fill="white"/>
<path opacity="0.8" d="M420.006 336.174C431.267 343.184 428.131 362.4 425.136 371.163C423.584 375.117 420.767 374.656 419.04 373.576C376.681 343.213 388.573 323.567 394.447 325.046C396.961 325.984 406.34 327.668 420.006 336.174Z" fill="white"/>
<path d="M424.542 376.161C432.594 371.058 430.228 357.265 428.024 350.985C426.885 348.152 424.863 348.501 423.629 349.287C393.363 371.357 402.025 385.407 406.238 384.309C408.04 383.62 414.77 382.355 424.542 376.161Z" fill="white"/>
<path opacity="0.8" d="M117.01 181.143C113.55 177.46 116.585 170.691 118.545 167.757C119.503 166.453 120.496 166.899 121.026 167.465C133.653 182.79 127.351 188.861 125.333 187.742C124.499 187.15 121.21 185.613 117.01 181.143Z" fill="white"/>
<path opacity="0.8" d="M118.719 158.554C113.862 163.639 118.008 173.091 120.702 177.195C122.02 179.021 123.406 178.412 124.15 177.63C141.892 156.451 133.194 147.934 130.373 149.468C129.206 150.281 124.613 152.383 118.719 158.554Z" fill="white"/>
<path opacity="0.9" d="M121.486 159.298C115.516 163.014 117.179 173.2 118.766 177.846C119.589 179.942 121.083 179.697 121.998 179.125C144.453 163.029 138.149 152.615 135.035 153.399C133.702 153.896 128.73 154.788 121.486 159.298Z" fill="white"/>
<path d="M119.081 180.495C114.813 177.789 116.067 170.477 117.236 167.148C117.839 165.646 118.911 165.831 119.566 166.248C135.61 177.948 131.018 185.395 128.785 184.814C127.83 184.449 124.262 183.778 119.081 180.495Z" fill="white"/>
<path opacity="0.8" d="M113.314 181.143C116.775 177.46 113.739 170.691 111.779 167.757C110.821 166.453 109.829 166.899 109.298 167.465C96.6715 182.79 102.973 188.861 104.991 187.742C105.825 187.15 109.114 185.613 113.314 181.143Z" fill="white"/>
<path opacity="0.8" d="M111.606 158.554C116.462 163.639 112.316 173.091 109.623 177.195C108.304 179.021 106.918 178.412 106.174 177.63C88.4321 156.451 97.1305 147.934 99.9509 149.468C101.118 150.281 105.711 152.383 111.606 158.554Z" fill="white"/>
<path opacity="0.8" d="M108.831 159.298C114.8 163.014 113.138 173.2 111.55 177.846C110.728 179.942 109.234 179.697 108.319 179.125C85.8633 163.029 92.1677 152.615 95.2813 153.399C96.6142 153.896 101.586 154.788 108.831 159.298Z" fill="white"/>
<path d="M111.235 180.495C115.504 177.789 114.249 170.477 113.081 167.148C112.477 165.646 111.405 165.831 110.751 166.248C94.7065 177.948 99.2986 185.395 101.532 184.814C102.487 184.449 106.055 183.778 111.235 180.495Z" fill="white"/>
</svg>
