<svg width="24" height="24" viewBox="0 0 24 24" fill="none" xmlns="http://www.w3.org/2000/svg">
<path d="M10.5 20.25H13.5M10.5 20.25L10.875 17.25H13.125L13.5 20.25M10.5 20.25H8.25M13.5 20.25H15.75M3.75 3.75H20.25C20.6478 3.75 21.0294 3.90804 21.3107 4.18934C21.592 4.47064 21.75 4.85218 21.75 5.25V15.75C21.75 16.1478 21.592 16.5294 21.3107 16.8107C21.0294 17.092 20.6478 17.25 20.25 17.25H3.75C3.35218 17.25 2.97064 17.092 2.68934 16.8107C2.40804 16.5294 2.25 16.1478 2.25 15.75V5.25C2.25 4.85218 2.40804 4.47064 2.68934 4.18934C2.97064 3.90804 3.35218 3.75 3.75 3.75Z" stroke="#0B0B0B" stroke-width="1.75" stroke-linecap="round" stroke-linejoin="round"/>
</svg>
