<svg width="24" height="24" viewBox="0 0 24 24" fill="none" xmlns="http://www.w3.org/2000/svg">
<path d="M12 4.1999C9.93129 4.1999 7.94733 5.02169 6.48454 6.48447C5.02176 7.94725 4.19998 9.93121 4.19998 11.9999C4.19998 14.0686 5.02176 16.0526 6.48454 17.5153C7.94733 18.9781 9.93129 19.7999 12 19.7999V4.1999ZM12 2.3999C14.5461 2.3999 16.9879 3.41133 18.7882 5.21168C20.5885 7.01203 21.6 9.45382 21.6 11.9999C21.6 14.546 20.5885 16.9878 18.7882 18.7881C16.9879 20.5885 14.5461 21.5999 12 21.5999C9.4539 21.5999 7.0121 20.5885 5.21175 18.7881C3.4114 16.9878 2.39998 14.546 2.39998 11.9999C2.39998 9.45382 3.4114 7.01203 5.21175 5.21168C7.0121 3.41133 9.4539 2.3999 12 2.3999Z" fill="#0B0B0B"/>
</svg>
