<svg width="24" height="24" viewBox="0 0 24 24" fill="none" xmlns="http://www.w3.org/2000/svg">
<path d="M5.75 6.42857V18.5714M2 7.64286V17.3571M9.5 6.42857C9.5 5.78447 9.76339 5.16676 10.2322 4.71131C10.7011 4.25587 11.337 4 12 4H19.5C20.163 4 20.7989 4.25587 21.2678 4.71131C21.7366 5.16676 22 5.78447 22 6.42857V18.5714C22 19.2155 21.7366 19.8332 21.2678 20.2887C20.7989 20.7441 20.163 21 19.5 21H12C11.337 21 10.7011 20.7441 10.2322 20.2887C9.76339 19.8332 9.5 19.2155 9.5 18.5714V6.42857Z" stroke="#0B0B0B" stroke-width="2" stroke-linecap="round" stroke-linejoin="round"/>
</svg>
