<svg width="30" height="30" viewBox="0 0 30 30" fill="none" xmlns="http://www.w3.org/2000/svg">
<path d="M7.1875 8.03571V23.2143M2.5 9.55357V21.6964M11.875 8.03571C11.875 7.23059 12.2042 6.45845 12.7903 5.88914C13.3763 5.31983 14.1712 5 15 5H24.375C25.2038 5 25.9987 5.31983 26.5847 5.88914C27.1708 6.45845 27.5 7.23059 27.5 8.03571V23.2143C27.5 24.0194 27.1708 24.7916 26.5847 25.3609C25.9987 25.9302 25.2038 26.25 24.375 26.25H15C14.1712 26.25 13.3763 25.9302 12.7903 25.3609C12.2042 24.7916 11.875 24.0194 11.875 23.2143V8.03571Z" stroke="#1B8AF1" stroke-width="3" stroke-linecap="round" stroke-linejoin="round"/>
</svg>
