<svg width="24" height="23" viewBox="0 0 24 23" fill="none" xmlns="http://www.w3.org/2000/svg">
<path d="M15.8452 19.488V17.6835C15.8452 16.7263 15.465 15.8083 14.7882 15.1315C14.1114 14.4547 13.1934 14.0745 12.2362 14.0745H5.92042C4.96325 14.0745 4.04528 14.4547 3.36846 15.1315C2.69164 15.8083 2.3114 16.7263 2.3114 17.6835V19.488" stroke="#0B0B0B" stroke-width="2.22394" stroke-linecap="round" stroke-linejoin="round"/>
<path d="M9.07863 10.4661C11.0718 10.4661 12.6876 8.85028 12.6876 6.85707C12.6876 4.86386 11.0718 3.24805 9.07863 3.24805C7.08542 3.24805 5.4696 4.86386 5.4696 6.85707C5.4696 8.85028 7.08542 10.4661 9.07863 10.4661Z" stroke="#0B0B0B" stroke-width="2.22394" stroke-linecap="round" stroke-linejoin="round"/>
<path d="M16.7478 10.4669L18.5523 12.2714L22.1613 8.66235" stroke="#0B0B0B" stroke-width="2.22394" stroke-linecap="round" stroke-linejoin="round"/>
</svg>
