<svg width="201" height="255" viewBox="0 0 201 255" fill="none" xmlns="http://www.w3.org/2000/svg">
<circle cx="100" cy="100" r="100" fill="#424242"/>
<g clip-path="url(#clip0_2400_20294)">
<g filter="url(#filter0_b_2400_20294)">
<rect x="25.9219" y="100.053" width="84.8528" height="84.8528" transform="rotate(-45 25.9219 100.053)" fill="#E7E7E7" fill-opacity="0.3"/>
</g>
<g filter="url(#filter1_f_2400_20294)">
<path d="M102.011 93.1223C94.2269 38.3091 40.8056 65.2619 3.68037 83.6468C-8.63786 110.648 74.7767 235.117 79.5377 181.67C84.2987 128.222 109.794 147.935 102.011 93.1223Z" fill="#31FECD"/>
</g>
<g filter="url(#filter2_f_2400_20294)">
<path d="M73.3879 106.606C49.8207 67.5027 107.775 41.0824 139.698 32.7601C181.495 30.4661 178.247 180.829 125.732 164.903C73.2178 148.977 102.847 155.485 73.3879 106.606Z" fill="#7635FF"/>
</g>
</g>
<g clip-path="url(#clip1_2400_20294)">
<g filter="url(#filter3_b_2400_20294)">
<rect width="84.8528" height="84.8528" transform="matrix(-0.707107 -0.707107 -0.707107 0.707107 174.508 99.834)" fill="#E7E7E7" fill-opacity="0.3"/>
</g>
<rect x="92.4824" y="62.3076" width="8.74771" height="3.49908" rx="1.74954" fill="white"/>
<rect x="136.658" y="137.975" width="8.74771" height="3.49908" rx="1.74954" transform="rotate(180 136.658 137.975)" fill="white"/>
<rect width="8.74771" height="3.49908" rx="1.74954" transform="matrix(-1 0 0 1 126.816 68.8682)" fill="white"/>
<rect width="8.74771" height="3.49908" rx="1.74954" transform="matrix(1 0 0 -1 102.324 131.414)" fill="white"/>
<rect x="120.912" y="92.0498" width="8.74771" height="3.49908" rx="1.74954" transform="rotate(180 120.912 92.0498)" fill="white"/>
<rect x="129.004" y="118.293" width="8.74771" height="3.49908" rx="1.74954" transform="rotate(180 129.004 118.293)" fill="white"/>
<rect x="77.1738" y="92.0498" width="8.74771" height="3.49908" rx="1.74954" transform="rotate(180 77.1738 92.0498)" fill="white"/>
<rect width="8.74771" height="3.49908" rx="1.74954" transform="matrix(1 0 0 -1 108.447 118.293)" fill="white"/>
<rect x="95.3262" y="75.4287" width="8.74771" height="3.49908" rx="1.74954" fill="white"/>
<rect x="133.814" y="124.854" width="8.74771" height="3.49908" rx="1.74954" transform="rotate(180 133.814 124.854)" fill="white"/>
<rect width="8.74771" height="3.49908" rx="1.74954" transform="matrix(1 0 0 -1 89.4199 85.4883)" fill="white"/>
<rect x="142.781" y="111.731" width="8.74771" height="3.49908" rx="1.74954" transform="rotate(180 142.781 111.731)" fill="white"/>
<rect width="12.2468" height="3.49908" rx="1.74954" transform="matrix(-1 0 0 1 142.125 68.8682)" fill="white"/>
<rect width="12.2468" height="3.49908" rx="1.74954" transform="matrix(1 0 0 -1 87.0156 131.414)" fill="white"/>
<rect x="136.221" y="92.0498" width="12.2468" height="3.49908" rx="1.74954" transform="rotate(180 136.221 92.0498)" fill="white"/>
<rect x="144.312" y="118.293" width="12.2468" height="3.49908" rx="1.74954" transform="rotate(180 144.312 118.293)" fill="white"/>
<rect x="161.59" y="92.0498" width="22.3067" height="3.49908" rx="1.74954" transform="rotate(180 161.59 92.0498)" fill="white"/>
<rect x="161.59" y="98.6104" width="3.49908" height="3.49908" rx="1.74954" transform="rotate(180 161.59 98.6104)" fill="white"/>
<rect x="150.873" y="118.293" width="3.49908" height="3.49908" rx="1.74954" transform="rotate(180 150.873 118.293)" fill="white"/>
<rect x="139.283" y="98.6104" width="27.1179" height="3.49908" rx="1.74954" transform="rotate(180 139.283 98.6104)" fill="white"/>
<rect width="42.8638" height="3.49908" rx="1.74954" transform="matrix(1 0 0 -1 73.0176 105.171)" fill="white"/>
<rect x="155.029" y="98.6104" width="12.6842" height="3.49908" rx="1.74954" transform="rotate(180 155.029 98.6104)" fill="white"/>
<rect width="6.77948" height="3.49908" rx="1.74954" transform="matrix(1 0 0 -1 63.1777 105.171)" fill="white"/>
<rect x="80.0176" y="75.4287" width="12.2468" height="3.49908" rx="1.74954" fill="white"/>
<rect x="149.123" y="124.854" width="12.2468" height="3.49908" rx="1.74954" transform="rotate(180 149.123 124.854)" fill="white"/>
<rect width="12.2468" height="3.49908" rx="1.74954" transform="matrix(1 0 0 -1 74.1113 85.4883)" fill="white"/>
<rect x="158.09" y="111.731" width="12.2468" height="3.49908" rx="1.74954" transform="rotate(180 158.09 111.731)" fill="white"/>
<rect x="104.291" y="62.3076" width="28.8674" height="3.49908" rx="1.74954" fill="white"/>
<rect x="124.85" y="137.975" width="28.8674" height="3.49908" rx="1.74954" transform="rotate(180 124.85 137.975)" fill="white"/>
<rect width="28.8675" height="3.49908" rx="1.74954" transform="matrix(-1 0 0 1 115.008 68.8682)" fill="white"/>
<rect width="28.8675" height="3.49908" rx="1.74954" transform="matrix(1 0 0 -1 114.133 131.414)" fill="white"/>
<rect x="109.104" y="92.0498" width="28.8674" height="3.49908" rx="1.74954" transform="rotate(180 109.104 92.0498)" fill="white"/>
<rect width="28.8675" height="3.49908" rx="1.74954" transform="matrix(1 0 0 -1 76.5176 118.293)" fill="white"/>
<rect x="109.104" y="98.6104" width="45.2694" height="3.49908" rx="1.74954" transform="rotate(180 109.104 98.6104)" fill="white"/>
<rect width="45.2694" height="3.49908" rx="1.74954" transform="matrix(1 0 0 -1 118.943 105.171)" fill="white"/>
<rect x="107.135" y="75.4287" width="22.7441" height="3.49908" rx="1.74954" fill="white"/>
<rect x="122.006" y="124.854" width="22.7441" height="3.49908" rx="1.74954" transform="rotate(180 122.006 124.854)" fill="white"/>
<rect width="22.7441" height="3.49908" rx="1.74954" transform="matrix(1 0 0 -1 101.23 85.4883)" fill="white"/>
<rect x="130.973" y="111.731" width="22.7441" height="3.49908" rx="1.74954" transform="rotate(180 130.973 111.731)" fill="white"/>
<rect x="132.939" y="75.4287" width="16.1833" height="3.49908" rx="1.74954" fill="white"/>
<rect x="96.1992" y="124.854" width="16.1833" height="3.49908" rx="1.74954" transform="rotate(180 96.1992 124.854)" fill="white"/>
<rect width="16.1833" height="3.49908" rx="1.74954" transform="matrix(1 0 0 -1 127.035 85.4883)" fill="white"/>
<rect x="105.166" y="111.731" width="16.1833" height="3.49908" rx="1.74954" transform="rotate(180 105.166 111.731)" fill="white"/>
<rect width="7.87294" height="3.49908" rx="1.74954" transform="matrix(1 0 0 -1 146.281 85.4883)" fill="white"/>
<rect x="85.9219" y="111.731" width="15.3085" height="3.49908" rx="1.74954" transform="rotate(180 85.9219 111.731)" fill="white"/>
<rect x="99.918" y="55.7461" width="29.3048" height="3.49908" rx="1.74954" fill="white"/>
<rect x="129.223" y="144.535" width="29.3048" height="3.49908" rx="1.74954" transform="rotate(180 129.223 144.535)" fill="white"/>
<rect x="108.666" y="49.1855" width="12.0281" height="3.49908" rx="1.74954" fill="white"/>
<rect x="118.725" y="151.097" width="8.74771" height="3.49908" rx="1.74954" transform="rotate(180 118.725 151.097)" fill="white"/>
</g>
<defs>
<filter id="filter0_b_2400_20294" x="23.2976" y="37.4284" width="125.249" height="125.249" filterUnits="userSpaceOnUse" color-interpolation-filters="sRGB">
<feFlood flood-opacity="0" result="BackgroundImageFix"/>
<feGaussianBlur in="BackgroundImageFix" stdDeviation="1.31216"/>
<feComposite in2="SourceAlpha" operator="in" result="effect1_backgroundBlur_2400_20294"/>
<feBlend mode="normal" in="SourceGraphic" in2="effect1_backgroundBlur_2400_20294" result="shape"/>
</filter>
<filter id="filter1_f_2400_20294" x="-32.5494" y="25.5707" width="171.019" height="204.281" filterUnits="userSpaceOnUse" color-interpolation-filters="sRGB">
<feFlood flood-opacity="0" result="BackgroundImageFix"/>
<feBlend mode="normal" in="SourceGraphic" in2="BackgroundImageFix" result="shape"/>
<feGaussianBlur stdDeviation="17.4954" result="effect1_foregroundBlur_2400_20294"/>
</filter>
<filter id="filter2_f_2400_20294" x="32.9037" y="-2.25645" width="170.464" height="203.332" filterUnits="userSpaceOnUse" color-interpolation-filters="sRGB">
<feFlood flood-opacity="0" result="BackgroundImageFix"/>
<feBlend mode="normal" in="SourceGraphic" in2="BackgroundImageFix" result="shape"/>
<feGaussianBlur stdDeviation="17.4954" result="effect1_foregroundBlur_2400_20294"/>
</filter>
<filter id="filter3_b_2400_20294" x="41.3862" y="26.7124" width="146.243" height="146.243" filterUnits="userSpaceOnUse" color-interpolation-filters="sRGB">
<feFlood flood-opacity="0" result="BackgroundImageFix"/>
<feGaussianBlur in="BackgroundImageFix" stdDeviation="6.56078"/>
<feComposite in2="SourceAlpha" operator="in" result="effect1_backgroundBlur_2400_20294"/>
<feBlend mode="normal" in="SourceGraphic" in2="effect1_backgroundBlur_2400_20294" result="shape"/>
</filter>
<clipPath id="clip0_2400_20294">
<rect x="26" y="100" width="84.8528" height="84.8528" rx="13.1216" transform="rotate(-45 26 100)" fill="white"/>
</clipPath>
<clipPath id="clip1_2400_20294">
<rect width="84.8528" height="84.8528" rx="13.1216" transform="matrix(-0.707107 -0.707107 -0.707107 0.707107 174.43 100)" fill="white"/>
</clipPath>
</defs>
</svg>
