<svg width="200" height="255" viewBox="0 0 200 255" fill="none" xmlns="http://www.w3.org/2000/svg">
<circle cx="100" cy="100" r="100" fill="white"/>
<path d="M84.8867 70.8575V45.7531C85.0611 43.8354 86.4557 40 90.6398 40C94.8239 40 122.027 40.0001 136.148 40C138.763 40 142.529 41.9874 142.947 45.7531C143.365 49.5188 141.378 67.1965 143.987 73.4726L157.062 98.577C157.759 99.9717 158.317 103.075 154.97 104.33C151.623 105.585 148.7 104.557 147.125 104.33C145.55 104.103 143.987 104.958 143.987 107.468C143.987 109.979 145.039 118.451 143.987 122.112C143.464 123.681 141.581 126.924 138.234 127.342C134.886 127.761 130.214 127.517 115.744 127.342" stroke="#1B8AF1" stroke-width="5.43958"/>
<path d="M103.715 58.8639H118.359M133.003 58.8639H127.449M118.359 58.8639V52.5518M118.359 58.8639H127.449M127.449 58.8639C125.85 65.7653 121.389 76.2856 108.26 80.0729M111.542 65.4286C113.057 70.9834 116.339 76.9719 125.681 81.0829" stroke="#1B8AF1" stroke-width="4.0398" stroke-linecap="round"/>
<path d="M114.704 116.882C114.704 121.24 114.704 150.773 114.704 154.538C114.704 158.304 110.869 159.594 108.951 159.768C94.4811 159.943 64.7044 160.187 61.3571 159.768C58.0098 159.35 56.127 156.107 55.604 154.538C54.5519 150.877 55.604 142.404 55.604 139.894C55.604 137.383 54.0411 136.529 52.4659 136.756C50.8908 136.983 47.9681 138.011 44.6208 136.756C41.2735 135.501 41.8314 132.397 42.5288 131.003L55.604 105.898C58.2129 99.6222 56.2255 81.9445 56.6439 78.1789C57.0623 74.4132 60.828 72.4258 63.443 72.4258C77.5643 72.4258 92.2086 72.4258 96.3926 72.4258" stroke="#383838" stroke-width="5.43958" stroke-linecap="round"/>
<path d="M65.0122 116.139L69.0613 105.598M85.9326 116.139L81.6585 105.598M69.0613 105.598L75.135 88.1162L81.6585 105.598M69.0613 105.598H81.6585" stroke="#383838" stroke-width="4.11338" stroke-linecap="round" stroke-linejoin="round"/>
</svg>
