<svg width="200" height="255" viewBox="0 0 200 255" fill="none" xmlns="http://www.w3.org/2000/svg">
<circle cx="100" cy="100" r="100" fill="white"/>
<g clip-path="url(#clip0_2400_20299)">
<path d="M76.2248 47.6502C74.2383 47.6502 72.3332 48.4393 70.9285 49.844C69.5239 51.2486 68.7347 53.1537 68.7347 55.1402V135.695C68.7347 135.695 76.2248 122.55 106.185 122.55C136.145 122.55 143.635 135.695 143.635 135.695V55.1402C143.635 53.1537 142.846 51.2486 141.441 49.844C140.037 48.4393 138.131 47.6502 136.145 47.6502H76.2248ZM136.145 40.1602C140.118 40.1602 143.928 41.7384 146.737 44.5477C149.547 47.357 151.125 51.1673 151.125 55.1402V145.021C151.125 148.994 149.547 152.804 146.737 155.613C143.928 158.422 140.118 160.001 136.145 160.001H76.2248C72.2518 160.001 68.4416 158.422 65.6323 155.613C62.823 152.804 61.2447 148.994 61.2447 145.021V55.1402C61.2447 51.1673 62.823 47.357 65.6323 44.5477C68.4416 41.7384 72.2518 40.1602 76.2248 40.1602H136.145Z" fill="#1B8AF1"/>
<path d="M106.184 115.06C103.233 115.06 100.312 114.479 97.5853 113.35C94.8591 112.221 92.382 110.565 90.2955 108.479C88.209 106.392 86.5538 103.915 85.4246 101.189C84.2954 98.4629 83.7142 95.541 83.7142 92.5902C83.7142 89.6394 84.2954 86.7175 85.4246 83.9913C86.5538 81.2651 88.209 78.788 90.2955 76.7015C92.382 74.6149 94.8591 72.9598 97.5853 71.8306C100.312 70.7013 103.233 70.1201 106.184 70.1201C112.144 70.1201 117.859 72.4875 122.073 76.7015C126.287 80.9154 128.654 86.6308 128.654 92.5902C128.654 98.5496 126.287 104.265 122.073 108.479C117.859 112.693 112.144 115.06 106.184 115.06Z" fill="#1B8AF1"/>
</g>
<g opacity="0.8" clip-path="url(#clip1_2400_20299)">
<path d="M63.9806 47.49C61.9942 47.49 60.089 48.2792 58.6844 49.6838C57.2797 51.0885 56.4906 52.9936 56.4906 54.9801V135.535C56.4906 135.535 63.9806 122.39 93.9407 122.39C123.901 122.39 131.391 135.535 131.391 135.535V54.9801C131.391 52.9936 130.602 51.0885 129.197 49.6838C127.792 48.2792 125.887 47.49 123.901 47.49H63.9806ZM123.901 40C127.874 40 131.684 41.5783 134.493 44.3876C137.303 47.1969 138.881 51.0071 138.881 54.9801V144.86C138.881 148.833 137.303 152.644 134.493 155.453C131.684 158.262 127.874 159.84 123.901 159.84H63.9806C60.0077 159.84 56.1974 158.262 53.3881 155.453C50.5788 152.644 49.0006 148.833 49.0006 144.86V54.9801C49.0006 51.0071 50.5788 47.1969 53.3881 44.3876C56.1974 41.5783 60.0077 40 63.9806 40H123.901Z" fill="#F51810"/>
<path d="M93.9401 114.9C90.9893 114.9 88.0674 114.319 85.3412 113.19C82.615 112.06 80.1379 110.405 78.0513 108.319C75.9648 106.232 74.3097 103.755 73.1805 101.029C72.0512 98.3028 71.47 95.3809 71.47 92.43C71.47 89.4792 72.0512 86.5573 73.1805 83.8311C74.3097 81.1049 75.9648 78.6278 78.0513 76.5413C80.1379 74.4548 82.615 72.7996 85.3412 71.6704C88.0674 70.5412 90.9893 69.96 93.9401 69.96C99.8995 69.96 105.615 72.3273 109.829 76.5413C114.043 80.7553 116.41 86.4706 116.41 92.43C116.41 98.3895 114.043 104.105 109.829 108.319C105.615 112.533 99.8995 114.9 93.9401 114.9Z" fill="#F51810"/>
</g>
<defs>
<clipPath id="clip0_2400_20299">
<rect width="89.8803" height="119.84" fill="white" transform="matrix(-1 0 0 1 151.006 40.1592)"/>
</clipPath>
<clipPath id="clip1_2400_20299">
<rect width="89.8803" height="119.84" fill="white" transform="matrix(-1 0 0 1 138.881 40)"/>
</clipPath>
</defs>
</svg>
