<svg width="200" height="255" viewBox="0 0 200 255" fill="none" xmlns="http://www.w3.org/2000/svg">
<circle cx="100" cy="100" r="100" fill="url(#paint0_linear_2400_20298)"/>
<path d="M99.1159 99.9689C99.1159 117.671 84.7653 132.022 67.0629 132.022C49.3605 132.022 35.0099 117.671 35.0099 99.9689C35.0099 82.2667 49.3605 67.9162 67.0629 67.9162C84.7653 67.9162 99.1159 82.2667 99.1159 99.9689Z" stroke="white" stroke-width="1.89097"/>
<circle cx="32.9984" cy="32.9984" r="32.0529" transform="matrix(0.707109 0.707104 -0.707109 0.707104 76.7988 30)" stroke="white" stroke-width="1.89097"/>
<path d="M132.01 67.0734C132.01 84.7757 117.66 99.1262 99.9575 99.1262C82.2551 99.1262 67.9045 84.7757 67.9045 67.0734C67.9045 49.3712 82.2551 35.0207 99.9575 35.0207C117.66 35.0207 132.01 49.3712 132.01 67.0734Z" stroke="white" stroke-width="1.89097"/>
<circle cx="32.9984" cy="32.9984" r="32.0529" transform="matrix(0.707109 0.707104 -0.707109 0.707104 123.322 30)" stroke="white" stroke-width="1.89097"/>
<path d="M165.112 99.9689C165.112 117.671 150.761 132.022 133.059 132.022C115.357 132.022 101.006 117.671 101.006 99.9689C101.006 82.2667 115.357 67.9162 133.059 67.9162C150.761 67.9162 165.112 82.2667 165.112 99.9689Z" stroke="white" stroke-width="1.89097"/>
<circle cx="32.9984" cy="32.9984" r="32.0529" transform="matrix(0.707109 0.707104 -0.707109 0.707104 123.465 76.667)" stroke="white" stroke-width="1.89097"/>
<path d="M132.01 133.071C132.01 150.773 117.66 165.123 99.9575 165.123C82.2551 165.123 67.9045 150.773 67.9045 133.071C67.9045 115.368 82.2551 101.018 99.9575 101.018C117.66 101.018 132.01 115.368 132.01 133.071Z" stroke="white" stroke-width="1.89097"/>
<circle cx="32.9984" cy="32.9984" r="32.0529" transform="matrix(0.707109 0.707104 -0.707109 0.707104 76.6543 76.667)" stroke="white" stroke-width="1.89097"/>
<defs>
<linearGradient id="paint0_linear_2400_20298" x1="30" y1="8.24779e-07" x2="153.5" y2="184.5" gradientUnits="userSpaceOnUse">
<stop stop-color="#504EB0"/>
<stop offset="0.993665" stop-color="#A47DA0"/>
</linearGradient>
</defs>
</svg>
