<svg width="480" height="480" viewBox="0 0 480 480" fill="none" xmlns="http://www.w3.org/2000/svg">
<rect width="480" height="480" rx="96" fill="#222222"/>
<path opacity="0.8" d="M252.182 326.538C228.759 301.611 249.302 255.796 262.568 235.941C269.055 227.113 275.772 230.13 279.359 233.964C364.822 337.688 322.172 378.774 308.513 371.199C302.868 367.196 280.608 356.79 252.182 326.538Z" fill="white"/>
<path opacity="0.8" d="M263.737 173.653C230.865 208.068 258.925 272.044 277.158 299.82C286.083 312.175 295.462 308.054 300.497 302.762C420.58 159.419 361.707 101.771 342.618 112.156C334.718 117.661 303.63 131.887 263.737 173.653Z" fill="white"/>
<path opacity="0.9" d="M282.5 178.689C242.096 203.839 253.349 272.785 264.094 304.225C269.662 318.414 279.772 316.757 285.966 312.884C437.95 203.944 395.28 133.456 374.206 138.762C365.185 142.127 331.535 148.167 282.5 178.689Z" fill="white"/>
<path d="M266.201 322.158C237.31 303.846 245.802 254.36 253.709 231.828C257.794 221.663 265.05 222.913 269.479 225.733C378.07 304.92 346.99 355.329 331.875 351.392C325.411 348.921 301.263 344.382 266.201 322.158Z" fill="white"/>
<path opacity="0.8" d="M227.113 326.536C250.536 301.609 229.993 255.794 216.727 235.939C210.24 227.111 203.523 230.128 199.936 233.962C114.473 337.686 157.123 378.772 170.782 371.197C176.427 367.194 198.686 356.788 227.113 326.536Z" fill="white"/>
<path opacity="0.8" d="M215.558 173.653C248.43 208.068 220.37 272.044 202.137 299.82C193.212 312.175 183.833 308.054 178.798 302.762C58.7149 159.419 117.588 101.771 136.677 112.156C144.577 117.661 175.665 131.887 215.558 173.653Z" fill="white"/>
<path opacity="0.8" d="M196.793 178.689C237.197 203.839 225.944 272.785 215.199 304.225C209.631 318.414 199.521 316.757 193.327 312.884C41.3431 203.944 84.0132 133.456 105.087 138.762C114.108 142.127 147.758 148.167 196.793 178.689Z" fill="white"/>
<path d="M213.092 322.158C241.983 303.846 233.491 254.36 225.584 231.828C221.499 221.663 214.243 222.913 209.814 225.733C101.223 304.92 132.303 355.329 147.417 351.392C153.882 348.921 178.03 344.382 213.092 322.158Z" fill="white"/>
</svg>
