<svg width="800" height="659" viewBox="0 0 800 659" fill="none" xmlns="http://www.w3.org/2000/svg">
<path opacity="0.8" d="M429.482 532.849C374.387 474.217 422.706 366.453 453.912 319.751C469.169 298.987 484.968 306.083 493.406 315.1C694.425 559.076 594.106 655.717 561.979 637.898C548.7 628.484 496.344 604.005 429.482 532.849Z" fill="#232323"/>
<path opacity="0.8" d="M456.661 173.243C379.342 254.193 445.344 404.674 488.23 470.006C509.222 499.069 531.283 489.376 543.126 476.926C825.577 139.763 687.101 4.16632 642.2 28.5923C623.618 41.5402 550.496 75.0024 456.661 173.243Z" fill="#232323"/>
<path opacity="0.7" d="M500.796 185.085C405.76 244.241 432.228 406.415 457.501 480.366C470.598 513.739 494.378 509.842 508.947 500.732C866.434 244.488 766.068 78.6905 716.5 91.1712C695.281 99.0862 616.131 113.294 500.796 185.085Z" fill="#424242"/>
<path d="M462.464 522.549C394.509 479.476 414.483 363.077 433.081 310.077C442.69 286.168 459.758 289.109 470.175 295.741C725.597 482.002 652.491 600.572 616.94 591.311C601.736 585.498 544.934 574.822 462.464 522.549Z" fill="#424242"/>
<path opacity="0.8" d="M370.519 532.848C425.613 474.216 377.294 366.452 346.089 319.75C330.832 298.986 315.033 306.082 306.595 315.099C105.576 559.075 205.895 655.716 238.021 637.897C251.3 628.483 303.656 604.004 370.519 532.848Z" fill="#232323"/>
<path opacity="0.8" d="M343.339 173.242C420.658 254.192 354.656 404.673 311.771 470.005C290.779 499.068 268.717 489.374 256.875 476.925C-25.5769 139.762 112.9 4.16522 157.8 28.5912C176.382 41.5391 249.504 75.0013 343.339 173.242Z" fill="#232323"/>
<path opacity="0.7" d="M299.205 185.085C394.24 244.24 367.773 406.414 342.499 480.365C329.402 513.738 305.622 509.842 291.054 500.732C-66.4332 244.488 33.9324 78.6899 83.4999 91.1706C104.72 99.0855 183.869 113.293 299.205 185.085Z" fill="#424242"/>
<path d="M337.536 522.548C405.491 479.475 385.517 363.077 366.919 310.076C357.31 286.168 340.242 289.108 329.825 295.741C74.4037 482.001 147.51 600.571 183.06 591.31C198.265 585.497 255.066 574.822 337.536 522.548Z" fill="#424242"/>
</svg>
