<svg width="800" height="659" viewBox="0 0 800 659" fill="none" xmlns="http://www.w3.org/2000/svg">
<path opacity="0.8" d="M429.482 532.848C374.388 474.216 422.707 366.452 453.912 319.75C469.169 298.986 484.968 306.082 493.406 315.099C694.425 559.075 594.106 655.716 561.98 637.897C548.701 628.482 496.345 604.004 429.482 532.848Z" fill="white"/>
<path opacity="0.8" d="M456.661 173.242C379.341 254.192 445.343 404.673 488.229 470.005C509.221 499.068 531.283 489.374 543.125 476.925C825.576 139.762 687.1 4.16542 642.199 28.5914C623.617 41.5392 550.496 75.0015 456.661 173.242Z" fill="white"/>
<path opacity="0.9" d="M500.795 185.085C405.76 244.24 432.227 406.414 457.501 480.365C470.598 513.738 494.378 509.841 508.946 500.732C866.433 244.488 766.067 78.6899 716.5 91.1705C695.28 99.0855 616.13 113.293 500.795 185.085Z" fill="white"/>
<path d="M462.465 522.546C394.51 479.473 414.484 363.075 433.082 310.074C442.691 286.166 459.759 289.106 470.176 295.739C725.597 481.999 652.491 600.569 616.941 591.308C601.736 585.495 544.935 574.82 462.465 522.546Z" fill="white"/>
<path opacity="0.8" d="M370.515 532.848C425.609 474.216 377.29 366.452 346.085 319.75C330.827 298.986 315.029 306.082 306.591 315.099C105.572 559.075 205.891 655.716 238.017 637.897C251.296 628.482 303.652 604.004 370.515 532.848Z" fill="white"/>
<path opacity="0.8" d="M343.336 173.242C420.655 254.192 354.653 404.673 311.767 470.005C290.775 499.068 268.714 489.374 256.871 476.925C-25.5803 139.762 112.896 4.16542 157.797 28.5914C176.379 41.5392 249.501 75.0015 343.336 173.242Z" fill="white"/>
<path opacity="0.8" d="M299.204 185.085C394.24 244.24 367.772 406.414 342.499 480.365C329.401 513.738 305.622 509.841 291.053 500.732C-66.4337 244.488 33.9319 78.6899 83.4993 91.1705C104.719 99.0855 183.869 113.293 299.204 185.085Z" fill="white"/>
<path d="M337.534 522.546C405.489 479.473 385.515 363.075 366.917 310.074C357.308 286.166 340.241 289.106 329.824 295.739C74.4021 481.999 147.508 600.569 183.059 591.308C198.263 585.495 255.064 574.82 337.534 522.546Z" fill="white"/>
</svg>
