<svg width="406" height="334" viewBox="0 0 406 334" fill="none" xmlns="http://www.w3.org/2000/svg">
<path opacity="0.8" d="M218.359 270.021C190.475 240.346 214.93 185.804 230.724 162.167C238.446 151.658 246.442 155.249 250.713 159.813C352.453 283.295 301.68 332.207 285.42 323.189C278.699 318.424 252.2 306.035 218.359 270.021Z" fill="white"/>
<path opacity="0.8" d="M232.116 88.016C192.983 128.986 226.388 205.148 248.093 238.215C258.718 252.924 269.884 248.018 275.877 241.717C418.832 71.0709 348.746 2.44227 326.021 14.8048C316.616 21.358 279.608 38.2941 232.116 88.016Z" fill="white"/>
<path opacity="0.9" d="M254.455 94.0086C206.356 123.949 219.751 206.029 232.543 243.457C239.172 260.348 251.207 258.376 258.581 253.765C439.513 124.074 388.715 40.1596 363.628 46.4764C352.888 50.4823 312.829 57.6732 254.455 94.0086Z" fill="white"/>
<path d="M235.056 264.806C200.662 243.005 210.772 184.093 220.185 157.269C225.048 145.168 233.686 146.656 238.958 150.013C368.233 244.284 331.233 304.295 313.24 299.608C305.544 296.665 276.796 291.262 235.056 264.806Z" fill="white"/>
<path opacity="0.8" d="M188.512 270.02C216.396 240.345 191.941 185.803 176.147 162.166C168.425 151.657 160.429 155.248 156.158 159.812C54.4179 283.294 105.192 332.206 121.452 323.188C128.172 318.423 154.671 306.034 188.512 270.02Z" fill="white"/>
<path opacity="0.8" d="M174.757 88.014C213.89 128.985 180.485 205.147 158.78 238.213C148.155 252.922 136.989 248.016 130.996 241.715C-11.9593 71.0689 58.1268 2.44031 80.852 14.8029C90.2567 21.3561 127.265 38.2921 174.757 88.014Z" fill="white"/>
<path opacity="0.8" d="M152.42 94.0076C200.519 123.948 187.124 206.028 174.332 243.456C167.703 260.347 155.668 258.375 148.294 253.764C-32.6378 124.073 18.1596 40.1587 43.2468 46.4754C53.9867 50.4814 94.0461 57.6722 152.42 94.0076Z" fill="white"/>
<path d="M171.819 264.805C206.213 243.004 196.103 184.092 186.69 157.268C181.827 145.167 173.189 146.655 167.917 150.012C38.6419 244.283 75.6424 304.294 93.6354 299.607C101.331 296.664 130.079 291.261 171.819 264.805Z" fill="white"/>
</svg>
